G04 #@! TF.GenerationSoftware,KiCad,Pcbnew,(5.1.9)-1*
G04 #@! TF.CreationDate,2021-01-18T01:03:21-08:00*
G04 #@! TF.ProjectId,AnalogFaderV1,416e616c-6f67-4466-9164-657256312e6b,rev?*
G04 #@! TF.SameCoordinates,Original*
G04 #@! TF.FileFunction,Legend,Bot*
G04 #@! TF.FilePolarity,Positive*
%FSLAX46Y46*%
G04 Gerber Fmt 4.6, Leading zero omitted, Abs format (unit mm)*
G04 Created by KiCad (PCBNEW (5.1.9)-1) date 2021-01-18 01:03:21*
%MOMM*%
%LPD*%
G01*
G04 APERTURE LIST*
%ADD10C,0.120000*%
%ADD11C,0.100000*%
%ADD12C,0.150000*%
G04 APERTURE END LIST*
D10*
X119475800Y-43210800D02*
X119475800Y-42210800D01*
X118115800Y-42210800D02*
X118115800Y-43210800D01*
D11*
X116226500Y-42138700D02*
X117326500Y-42138700D01*
X117326500Y-42138700D02*
X117326500Y-42238700D01*
X117326500Y-42238700D02*
X116226500Y-42238700D01*
X116226500Y-42238700D02*
X116226500Y-42138700D01*
X117576500Y-42138700D02*
X117576500Y-43738700D01*
X115976500Y-42938700D02*
X115976500Y-43738700D01*
X115976500Y-42938700D02*
X115976500Y-42138700D01*
X121751000Y-50431100D02*
X121376000Y-50081100D01*
X121376000Y-50081100D02*
X120651000Y-50081100D01*
X123301000Y-50081100D02*
X123301000Y-50431100D01*
X123301000Y-50431100D02*
X122926000Y-50431100D01*
X121676000Y-47181100D02*
X121301000Y-47181100D01*
X121301000Y-47181100D02*
X121301000Y-47531100D01*
X123301000Y-47531100D02*
X123301000Y-47181100D01*
X123301000Y-47181100D02*
X122951000Y-47181100D01*
D10*
X125622000Y-48263100D02*
X126322000Y-48263100D01*
X126322000Y-47063100D02*
X125622000Y-47063100D01*
X118805400Y-48506200D02*
X118805400Y-49206200D01*
X120005400Y-49206200D02*
X120005400Y-48506200D01*
X116401100Y-52568400D02*
X117101100Y-52568400D01*
X117101100Y-51368400D02*
X116401100Y-51368400D01*
X110893200Y-47902500D02*
X110893200Y-49902500D01*
X113033200Y-49902500D02*
X113033200Y-47902500D01*
X121801000Y-53677100D02*
X122801000Y-53677100D01*
X122801000Y-52317100D02*
X121801000Y-52317100D01*
X122801000Y-50767700D02*
X121801000Y-50767700D01*
X121801000Y-52127700D02*
X122801000Y-52127700D01*
X125319600Y-51403800D02*
X126319600Y-51403800D01*
X126319600Y-50043800D02*
X125319600Y-50043800D01*
X126319600Y-48469000D02*
X125319600Y-48469000D01*
X125319600Y-49829000D02*
X126319600Y-49829000D01*
X122827100Y-44163700D02*
X121827100Y-44163700D01*
X121827100Y-45523700D02*
X122827100Y-45523700D01*
X121838400Y-43885400D02*
X122838400Y-43885400D01*
X122838400Y-42525400D02*
X121838400Y-42525400D01*
X122838400Y-40887100D02*
X121838400Y-40887100D01*
X121838400Y-42247100D02*
X122838400Y-42247100D01*
D12*
X118975166Y-41283580D02*
X119308500Y-40807390D01*
X119546595Y-41283580D02*
X119546595Y-40283580D01*
X119165642Y-40283580D01*
X119070404Y-40331200D01*
X119022785Y-40378819D01*
X118975166Y-40474057D01*
X118975166Y-40616914D01*
X119022785Y-40712152D01*
X119070404Y-40759771D01*
X119165642Y-40807390D01*
X119546595Y-40807390D01*
X118403738Y-40712152D02*
X118498976Y-40664533D01*
X118546595Y-40616914D01*
X118594214Y-40521676D01*
X118594214Y-40474057D01*
X118546595Y-40378819D01*
X118498976Y-40331200D01*
X118403738Y-40283580D01*
X118213261Y-40283580D01*
X118118023Y-40331200D01*
X118070404Y-40378819D01*
X118022785Y-40474057D01*
X118022785Y-40521676D01*
X118070404Y-40616914D01*
X118118023Y-40664533D01*
X118213261Y-40712152D01*
X118403738Y-40712152D01*
X118498976Y-40759771D01*
X118546595Y-40807390D01*
X118594214Y-40902628D01*
X118594214Y-41093104D01*
X118546595Y-41188342D01*
X118498976Y-41235961D01*
X118403738Y-41283580D01*
X118213261Y-41283580D01*
X118118023Y-41235961D01*
X118070404Y-41188342D01*
X118022785Y-41093104D01*
X118022785Y-40902628D01*
X118070404Y-40807390D01*
X118118023Y-40759771D01*
X118213261Y-40712152D01*
X117463795Y-46654980D02*
X117463795Y-45654980D01*
X117225700Y-45654980D01*
X117082842Y-45702600D01*
X116987604Y-45797838D01*
X116939985Y-45893076D01*
X116892366Y-46083552D01*
X116892366Y-46226409D01*
X116939985Y-46416885D01*
X116987604Y-46512123D01*
X117082842Y-46607361D01*
X117225700Y-46654980D01*
X117463795Y-46654980D01*
X116511414Y-45750219D02*
X116463795Y-45702600D01*
X116368557Y-45654980D01*
X116130461Y-45654980D01*
X116035223Y-45702600D01*
X115987604Y-45750219D01*
X115939985Y-45845457D01*
X115939985Y-45940695D01*
X115987604Y-46083552D01*
X116559033Y-46654980D01*
X115939985Y-46654980D01*
X123228004Y-45743880D02*
X123228004Y-46553404D01*
X123180385Y-46648642D01*
X123132766Y-46696261D01*
X123037528Y-46743880D01*
X122847052Y-46743880D01*
X122751814Y-46696261D01*
X122704195Y-46648642D01*
X122656576Y-46553404D01*
X122656576Y-45743880D01*
X121656576Y-46743880D02*
X122228004Y-46743880D01*
X121942290Y-46743880D02*
X121942290Y-45743880D01*
X122037528Y-45886738D01*
X122132766Y-45981976D01*
X122228004Y-46029595D01*
X128538266Y-48020242D02*
X128585885Y-48067861D01*
X128728742Y-48115480D01*
X128823980Y-48115480D01*
X128966838Y-48067861D01*
X129062076Y-47972623D01*
X129109695Y-47877385D01*
X129157314Y-47686909D01*
X129157314Y-47544052D01*
X129109695Y-47353576D01*
X129062076Y-47258338D01*
X128966838Y-47163100D01*
X128823980Y-47115480D01*
X128728742Y-47115480D01*
X128585885Y-47163100D01*
X128538266Y-47210719D01*
X127585885Y-48115480D02*
X128157314Y-48115480D01*
X127871600Y-48115480D02*
X127871600Y-47115480D01*
X127966838Y-47258338D01*
X128062076Y-47353576D01*
X128157314Y-47401195D01*
X119812642Y-46289233D02*
X119860261Y-46241614D01*
X119907880Y-46098757D01*
X119907880Y-46003519D01*
X119860261Y-45860661D01*
X119765023Y-45765423D01*
X119669785Y-45717804D01*
X119479309Y-45670185D01*
X119336452Y-45670185D01*
X119145976Y-45717804D01*
X119050738Y-45765423D01*
X118955500Y-45860661D01*
X118907880Y-46003519D01*
X118907880Y-46098757D01*
X118955500Y-46241614D01*
X119003119Y-46289233D01*
X119003119Y-46670185D02*
X118955500Y-46717804D01*
X118907880Y-46813042D01*
X118907880Y-47051138D01*
X118955500Y-47146376D01*
X119003119Y-47193995D01*
X119098357Y-47241614D01*
X119193595Y-47241614D01*
X119336452Y-47193995D01*
X119907880Y-46622566D01*
X119907880Y-47241614D01*
X116905066Y-50890442D02*
X116952685Y-50938061D01*
X117095542Y-50985680D01*
X117190780Y-50985680D01*
X117333638Y-50938061D01*
X117428876Y-50842823D01*
X117476495Y-50747585D01*
X117524114Y-50557109D01*
X117524114Y-50414252D01*
X117476495Y-50223776D01*
X117428876Y-50128538D01*
X117333638Y-50033300D01*
X117190780Y-49985680D01*
X117095542Y-49985680D01*
X116952685Y-50033300D01*
X116905066Y-50080919D01*
X116571733Y-49985680D02*
X115952685Y-49985680D01*
X116286019Y-50366633D01*
X116143161Y-50366633D01*
X116047923Y-50414252D01*
X116000304Y-50461871D01*
X115952685Y-50557109D01*
X115952685Y-50795204D01*
X116000304Y-50890442D01*
X116047923Y-50938061D01*
X116143161Y-50985680D01*
X116428876Y-50985680D01*
X116524114Y-50938061D01*
X116571733Y-50890442D01*
X113784071Y-48688666D02*
X113784071Y-48355333D01*
X114307880Y-48355333D02*
X113307880Y-48355333D01*
X113307880Y-48831523D01*
X114307880Y-49736285D02*
X114307880Y-49164857D01*
X114307880Y-49450571D02*
X113307880Y-49450571D01*
X113450738Y-49355333D01*
X113545976Y-49260095D01*
X113593595Y-49164857D01*
X120295966Y-53424080D02*
X120629300Y-52947890D01*
X120867395Y-53424080D02*
X120867395Y-52424080D01*
X120486442Y-52424080D01*
X120391204Y-52471700D01*
X120343585Y-52519319D01*
X120295966Y-52614557D01*
X120295966Y-52757414D01*
X120343585Y-52852652D01*
X120391204Y-52900271D01*
X120486442Y-52947890D01*
X120867395Y-52947890D01*
X119343585Y-53424080D02*
X119915014Y-53424080D01*
X119629300Y-53424080D02*
X119629300Y-52424080D01*
X119724538Y-52566938D01*
X119819776Y-52662176D01*
X119915014Y-52709795D01*
X120295966Y-51938180D02*
X120629300Y-51461990D01*
X120867395Y-51938180D02*
X120867395Y-50938180D01*
X120486442Y-50938180D01*
X120391204Y-50985800D01*
X120343585Y-51033419D01*
X120295966Y-51128657D01*
X120295966Y-51271514D01*
X120343585Y-51366752D01*
X120391204Y-51414371D01*
X120486442Y-51461990D01*
X120867395Y-51461990D01*
X119915014Y-51033419D02*
X119867395Y-50985800D01*
X119772157Y-50938180D01*
X119534061Y-50938180D01*
X119438823Y-50985800D01*
X119391204Y-51033419D01*
X119343585Y-51128657D01*
X119343585Y-51223895D01*
X119391204Y-51366752D01*
X119962633Y-51938180D01*
X119343585Y-51938180D01*
X128220766Y-51150780D02*
X128554100Y-50674590D01*
X128792195Y-51150780D02*
X128792195Y-50150780D01*
X128411242Y-50150780D01*
X128316004Y-50198400D01*
X128268385Y-50246019D01*
X128220766Y-50341257D01*
X128220766Y-50484114D01*
X128268385Y-50579352D01*
X128316004Y-50626971D01*
X128411242Y-50674590D01*
X128792195Y-50674590D01*
X127887433Y-50150780D02*
X127268385Y-50150780D01*
X127601719Y-50531733D01*
X127458861Y-50531733D01*
X127363623Y-50579352D01*
X127316004Y-50626971D01*
X127268385Y-50722209D01*
X127268385Y-50960304D01*
X127316004Y-51055542D01*
X127363623Y-51103161D01*
X127458861Y-51150780D01*
X127744576Y-51150780D01*
X127839814Y-51103161D01*
X127887433Y-51055542D01*
X128234866Y-49563280D02*
X128568200Y-49087090D01*
X128806295Y-49563280D02*
X128806295Y-48563280D01*
X128425342Y-48563280D01*
X128330104Y-48610900D01*
X128282485Y-48658519D01*
X128234866Y-48753757D01*
X128234866Y-48896614D01*
X128282485Y-48991852D01*
X128330104Y-49039471D01*
X128425342Y-49087090D01*
X128806295Y-49087090D01*
X127377723Y-48896614D02*
X127377723Y-49563280D01*
X127615819Y-48515661D02*
X127853914Y-49229947D01*
X127234866Y-49229947D01*
X124715566Y-45321480D02*
X125048900Y-44845290D01*
X125286995Y-45321480D02*
X125286995Y-44321480D01*
X124906042Y-44321480D01*
X124810804Y-44369100D01*
X124763185Y-44416719D01*
X124715566Y-44511957D01*
X124715566Y-44654814D01*
X124763185Y-44750052D01*
X124810804Y-44797671D01*
X124906042Y-44845290D01*
X125286995Y-44845290D01*
X123810804Y-44321480D02*
X124286995Y-44321480D01*
X124334614Y-44797671D01*
X124286995Y-44750052D01*
X124191757Y-44702433D01*
X123953661Y-44702433D01*
X123858423Y-44750052D01*
X123810804Y-44797671D01*
X123763185Y-44892909D01*
X123763185Y-45131004D01*
X123810804Y-45226242D01*
X123858423Y-45273861D01*
X123953661Y-45321480D01*
X124191757Y-45321480D01*
X124286995Y-45273861D01*
X124334614Y-45226242D01*
X124740966Y-43594280D02*
X125074300Y-43118090D01*
X125312395Y-43594280D02*
X125312395Y-42594280D01*
X124931442Y-42594280D01*
X124836204Y-42641900D01*
X124788585Y-42689519D01*
X124740966Y-42784757D01*
X124740966Y-42927614D01*
X124788585Y-43022852D01*
X124836204Y-43070471D01*
X124931442Y-43118090D01*
X125312395Y-43118090D01*
X123883823Y-42594280D02*
X124074300Y-42594280D01*
X124169538Y-42641900D01*
X124217157Y-42689519D01*
X124312395Y-42832376D01*
X124360014Y-43022852D01*
X124360014Y-43403804D01*
X124312395Y-43499042D01*
X124264776Y-43546661D01*
X124169538Y-43594280D01*
X123979061Y-43594280D01*
X123883823Y-43546661D01*
X123836204Y-43499042D01*
X123788585Y-43403804D01*
X123788585Y-43165709D01*
X123836204Y-43070471D01*
X123883823Y-43022852D01*
X123979061Y-42975233D01*
X124169538Y-42975233D01*
X124264776Y-43022852D01*
X124312395Y-43070471D01*
X124360014Y-43165709D01*
X124779066Y-42171880D02*
X125112400Y-41695690D01*
X125350495Y-42171880D02*
X125350495Y-41171880D01*
X124969542Y-41171880D01*
X124874304Y-41219500D01*
X124826685Y-41267119D01*
X124779066Y-41362357D01*
X124779066Y-41505214D01*
X124826685Y-41600452D01*
X124874304Y-41648071D01*
X124969542Y-41695690D01*
X125350495Y-41695690D01*
X124445733Y-41171880D02*
X123779066Y-41171880D01*
X124207638Y-42171880D01*
M02*
