G04 #@! TF.GenerationSoftware,KiCad,Pcbnew,(5.1.9)-1*
G04 #@! TF.CreationDate,2021-01-18T01:03:21-08:00*
G04 #@! TF.ProjectId,AnalogFaderV1,416e616c-6f67-4466-9164-657256312e6b,rev?*
G04 #@! TF.SameCoordinates,Original*
G04 #@! TF.FileFunction,Soldermask,Bot*
G04 #@! TF.FilePolarity,Negative*
%FSLAX46Y46*%
G04 Gerber Fmt 4.6, Leading zero omitted, Abs format (unit mm)*
G04 Created by KiCad (PCBNEW (5.1.9)-1) date 2021-01-18 01:03:21*
%MOMM*%
%LPD*%
G01*
G04 APERTURE LIST*
%ADD10R,0.900000X0.500000*%
%ADD11C,4.399999*%
%ADD12R,0.575000X0.600000*%
%ADD13R,1.650000X0.600000*%
%ADD14O,0.650000X1.300000*%
%ADD15O,1.550000X0.775000*%
%ADD16R,0.800000X0.750000*%
%ADD17R,0.750000X0.800000*%
%ADD18R,2.030000X1.650000*%
%ADD19R,0.500000X0.900000*%
G04 APERTURE END LIST*
D10*
X118795800Y-41960800D03*
X118795800Y-43460800D03*
D11*
X112915700Y-55791100D03*
X131749800Y-55791100D03*
X131749800Y-41986200D03*
X112915700Y-41986200D03*
D12*
X117314000Y-44288700D03*
X116239000Y-44288700D03*
X117314000Y-41588700D03*
D13*
X116776500Y-40988700D03*
X116776500Y-44888700D03*
D12*
X116239000Y-41588700D03*
D14*
X114406900Y-46389900D03*
X114406900Y-51389900D03*
D15*
X111706900Y-45389900D03*
X111706900Y-52389900D03*
G36*
G01*
X124151000Y-50056100D02*
X123051000Y-50056100D01*
G75*
G02*
X123001000Y-50006100I0J50000D01*
G01*
X123001000Y-49556100D01*
G75*
G02*
X123051000Y-49506100I50000J0D01*
G01*
X124151000Y-49506100D01*
G75*
G02*
X124201000Y-49556100I0J-50000D01*
G01*
X124201000Y-50006100D01*
G75*
G02*
X124151000Y-50056100I-50000J0D01*
G01*
G37*
G36*
G01*
X124151000Y-49406100D02*
X123051000Y-49406100D01*
G75*
G02*
X123001000Y-49356100I0J50000D01*
G01*
X123001000Y-48906100D01*
G75*
G02*
X123051000Y-48856100I50000J0D01*
G01*
X124151000Y-48856100D01*
G75*
G02*
X124201000Y-48906100I0J-50000D01*
G01*
X124201000Y-49356100D01*
G75*
G02*
X124151000Y-49406100I-50000J0D01*
G01*
G37*
G36*
G01*
X124151000Y-48756100D02*
X123051000Y-48756100D01*
G75*
G02*
X123001000Y-48706100I0J50000D01*
G01*
X123001000Y-48256100D01*
G75*
G02*
X123051000Y-48206100I50000J0D01*
G01*
X124151000Y-48206100D01*
G75*
G02*
X124201000Y-48256100I0J-50000D01*
G01*
X124201000Y-48706100D01*
G75*
G02*
X124151000Y-48756100I-50000J0D01*
G01*
G37*
G36*
G01*
X124151000Y-48106100D02*
X123051000Y-48106100D01*
G75*
G02*
X123001000Y-48056100I0J50000D01*
G01*
X123001000Y-47606100D01*
G75*
G02*
X123051000Y-47556100I50000J0D01*
G01*
X124151000Y-47556100D01*
G75*
G02*
X124201000Y-47606100I0J-50000D01*
G01*
X124201000Y-48056100D01*
G75*
G02*
X124151000Y-48106100I-50000J0D01*
G01*
G37*
G36*
G01*
X121551000Y-48106100D02*
X120451000Y-48106100D01*
G75*
G02*
X120401000Y-48056100I0J50000D01*
G01*
X120401000Y-47606100D01*
G75*
G02*
X120451000Y-47556100I50000J0D01*
G01*
X121551000Y-47556100D01*
G75*
G02*
X121601000Y-47606100I0J-50000D01*
G01*
X121601000Y-48056100D01*
G75*
G02*
X121551000Y-48106100I-50000J0D01*
G01*
G37*
G36*
G01*
X121551000Y-48756100D02*
X120451000Y-48756100D01*
G75*
G02*
X120401000Y-48706100I0J50000D01*
G01*
X120401000Y-48256100D01*
G75*
G02*
X120451000Y-48206100I50000J0D01*
G01*
X121551000Y-48206100D01*
G75*
G02*
X121601000Y-48256100I0J-50000D01*
G01*
X121601000Y-48706100D01*
G75*
G02*
X121551000Y-48756100I-50000J0D01*
G01*
G37*
G36*
G01*
X121551000Y-49406100D02*
X120451000Y-49406100D01*
G75*
G02*
X120401000Y-49356100I0J50000D01*
G01*
X120401000Y-48906100D01*
G75*
G02*
X120451000Y-48856100I50000J0D01*
G01*
X121551000Y-48856100D01*
G75*
G02*
X121601000Y-48906100I0J-50000D01*
G01*
X121601000Y-49356100D01*
G75*
G02*
X121551000Y-49406100I-50000J0D01*
G01*
G37*
G36*
G01*
X121551000Y-50056100D02*
X120451000Y-50056100D01*
G75*
G02*
X120401000Y-50006100I0J50000D01*
G01*
X120401000Y-49556100D01*
G75*
G02*
X120451000Y-49506100I50000J0D01*
G01*
X121551000Y-49506100D01*
G75*
G02*
X121601000Y-49556100I0J-50000D01*
G01*
X121601000Y-50006100D01*
G75*
G02*
X121551000Y-50056100I-50000J0D01*
G01*
G37*
D16*
X125222000Y-47663100D03*
X126722000Y-47663100D03*
D17*
X119405400Y-48106200D03*
X119405400Y-49606200D03*
D16*
X116001100Y-51968400D03*
X117501100Y-51968400D03*
D18*
X111963200Y-50482500D03*
X111963200Y-47322500D03*
D19*
X123051000Y-52997100D03*
X121551000Y-52997100D03*
X121551000Y-51447700D03*
X123051000Y-51447700D03*
X126569600Y-50723800D03*
X125069600Y-50723800D03*
X125069600Y-49149000D03*
X126569600Y-49149000D03*
X121577100Y-44843700D03*
X123077100Y-44843700D03*
X123088400Y-43205400D03*
X121588400Y-43205400D03*
X121588400Y-41567100D03*
X123088400Y-41567100D03*
M02*
