M48
; DRILL file {KiCad (5.1.9)-1} date 01/18/21 01:03:50
; FORMAT={-:-/ absolute / inch / decimal}
; #@! TF.CreationDate,2021-01-18T01:03:50-08:00
; #@! TF.GenerationSoftware,Kicad,Pcbnew,(5.1.9)-1
; #@! TF.FileFunction,Plated,1,2,PTH
FMAT,2
INCH
T1C0.0157
T2C0.0197
T3C0.0217
T4C0.0866
%
G90
G05
T1
X4.5685Y-1.8735
X4.6505Y-1.883
X4.6505Y-1.9255
X4.6505Y-1.966
X4.7005Y-2.024
X4.7165Y-1.8345
X4.8145Y-1.8865
X4.816Y-1.8345
X4.8825Y-2.026
X4.983Y-1.8225
X5.108Y-1.991
X5.1705Y-1.9915
X5.235Y-1.9905
T4
X4.4455Y-1.653
X4.4455Y-2.1965
X5.187Y-1.653
X5.187Y-2.1965
T2
G00X4.4107Y-1.787
M15
G01X4.3851Y-1.787
M16
G05
G00X4.4107Y-2.0626
M15
G01X4.3851Y-2.0626
M16
G05
T3
G00X4.5042Y-1.8205
M15
G01X4.5042Y-1.8323
M16
G05
G00X4.5042Y-2.0173
M15
G01X4.5042Y-2.0291
M16
G05
T0
M30
